<svg width="48" height="48" viewBox="0 0 48 48" fill="none" xmlns="http://www.w3.org/2000/svg">
<path d="M24.0004 45.6C35.9297 45.6 45.6004 35.9294 45.6004 24C45.6004 12.0707 35.9297 2.40002 24.0004 2.40002C12.071 2.40002 2.40039 12.0707 2.40039 24C2.40039 35.9294 12.071 45.6 24.0004 45.6Z" stroke="#227AEB" stroke-width="3" stroke-linecap="round" stroke-linejoin="round"/>
<path d="M12.4575 26.88C12.2399 26.88 12.0255 26.9323 11.8323 27.0323C11.6391 27.1323 11.4728 27.2772 11.3472 27.4549C11.2216 27.6325 11.1404 27.8377 11.1105 28.0532C11.0807 28.2687 11.1029 28.4882 11.1754 28.6933C12.1115 31.3473 13.8477 33.6456 16.1449 35.2712C18.442 36.8969 21.1869 37.7699 24.0011 37.7699C26.8153 37.7699 29.5602 36.8969 31.8574 35.2712C34.1546 33.6456 35.8908 31.3473 36.8269 28.6933C36.8994 28.4882 36.9216 28.2687 36.8917 28.0532C36.8619 27.8377 36.7807 27.6325 36.6551 27.4549C36.5295 27.2772 36.3631 27.1323 36.17 27.0323C35.9768 26.9323 35.7624 26.88 35.5448 26.88H12.4575Z" stroke="#227AEB" stroke-width="3" stroke-linecap="round" stroke-linejoin="round"/>
<path d="M35.7741 17.36C35.4929 18.1557 34.972 18.8446 34.2831 19.3319C33.5941 19.8192 32.771 20.0809 31.9271 20.0809C31.0832 20.0809 30.2601 19.8192 29.5711 19.3319C28.8821 18.8446 28.3612 18.1557 28.0801 17.36" stroke="#227AEB" stroke-width="3" stroke-linecap="round" stroke-linejoin="round"/>
<path d="M19.9205 17.36C19.6394 18.1557 19.1185 18.8446 18.4295 19.3319C17.7406 19.8192 16.9174 20.0809 16.0736 20.0809C15.2297 20.0809 14.4065 19.8192 13.7176 19.3319C13.0286 18.8446 12.5077 18.1557 12.2266 17.36" stroke="#227AEB" stroke-width="3" stroke-linecap="round" stroke-linejoin="round"/>
</svg>
